<svg width="23" height="23" viewBox="0 0 23 23" fill="none" xmlns="http://www.w3.org/2000/svg">
<g clip-path="url(#clip0_15_421)">
<path d="M10.542 3.8335H3.83366C3.32533 3.8335 2.83782 4.03543 2.47837 4.39487C2.11893 4.75432 1.91699 5.24183 1.91699 5.75016V19.1668C1.91699 19.6752 2.11893 20.1627 2.47837 20.5221C2.83782 20.8816 3.32533 21.0835 3.83366 21.0835H17.2503C17.7587 21.0835 18.2462 20.8816 18.6056 20.5221C18.9651 20.1627 19.167 19.6752 19.167 19.1668V12.4585" stroke="#9CA3AF" stroke-width="2" stroke-linecap="round" stroke-linejoin="round"/>
<path d="M17.7295 2.39572C18.1107 2.01448 18.6278 1.80029 19.167 1.80029C19.7062 1.80029 20.2232 2.01448 20.6045 2.39572C20.9857 2.77697 21.1999 3.29406 21.1999 3.83322C21.1999 4.37239 20.9857 4.88948 20.6045 5.27072L11.5003 14.3749L7.66699 15.3332L8.62533 11.4999L17.7295 2.39572Z" stroke="#9CA3AF" stroke-width="2" stroke-linecap="round" stroke-linejoin="round"/>
</g>
<defs>
<clipPath id="clip0_15_421">
<rect width="23" height="23" fill="white"/>
</clipPath>
</defs>
</svg>
