<svg width="44" height="44" viewBox="0 0 44 44" fill="none" xmlns="http://www.w3.org/2000/svg">
<rect width="44" height="44" rx="22" fill="#F5F5F5"/>
<path d="M19.0004 27.75C18.5904 27.75 18.2504 27.41 18.2504 27V22.81L17.5304 23.53C17.2404 23.82 16.7604 23.82 16.4704 23.53C16.1804 23.24 16.1804 22.76 16.4704 22.47L18.4704 20.47C18.6804 20.26 19.0104 20.19 19.2904 20.31C19.5704 20.42 19.7504 20.7 19.7504 21V27C19.7504 27.41 19.4104 27.75 19.0004 27.75Z" fill="#004AAB"/>
<path d="M21.0004 23.75C20.8104 23.75 20.6204 23.68 20.4704 23.53L18.4704 21.53C18.1804 21.24 18.1804 20.76 18.4704 20.47C18.7604 20.18 19.2404 20.18 19.5304 20.47L21.5304 22.47C21.8204 22.76 21.8204 23.24 21.5304 23.53C21.3804 23.68 21.1904 23.75 21.0004 23.75Z" fill="#004AAB"/>
<path d="M25 32.75H19C13.57 32.75 11.25 30.43 11.25 25V19C11.25 13.57 13.57 11.25 19 11.25H24C24.41 11.25 24.75 11.59 24.75 12C24.75 12.41 24.41 12.75 24 12.75H19C14.39 12.75 12.75 14.39 12.75 19V25C12.75 29.61 14.39 31.25 19 31.25H25C29.61 31.25 31.25 29.61 31.25 25V20C31.25 19.59 31.59 19.25 32 19.25C32.41 19.25 32.75 19.59 32.75 20V25C32.75 30.43 30.43 32.75 25 32.75Z" fill="#004AAB"/>
<path d="M32 20.75H28C24.58 20.75 23.25 19.42 23.25 16V12C23.25 11.7 23.43 11.42 23.71 11.31C23.99 11.19 24.31 11.26 24.53 11.47L32.53 19.47C32.74 19.68 32.81 20.01 32.69 20.29C32.57 20.57 32.3 20.75 32 20.75ZM24.75 13.81V16C24.75 18.58 25.42 19.25 28 19.25H30.19L24.75 13.81Z" fill="#004AAB"/>
</svg>
